<?xml version="1.0" encoding="UTF-8" standalone="no"?>
<svg
   xmlns:dc="http://purl.org/dc/elements/1.1/"
   xmlns:cc="http://creativecommons.org/ns#"
   xmlns:rdf="http://www.w3.org/1999/02/22-rdf-syntax-ns#"
   xmlns:svg="http://www.w3.org/2000/svg"
   xmlns="http://www.w3.org/2000/svg"
   xmlns:sodipodi="http://sodipodi.sourceforge.net/DTD/sodipodi-0.dtd"
   xmlns:inkscape="http://www.inkscape.org/namespaces/inkscape"
   version="1.1"
   id="Calque_1"
   x="0px"
   y="0px"
   viewBox="0 0 1133.86 1133.86"
   style="enable-background:new 0 0 1133.86 1133.86;"
   xml:space="preserve"
   sodipodi:docname="valhalla.svg"
   inkscape:version="1.0.1 (3bc2e813f5, 2020-09-07)"><metadata
   id="metadata53"><rdf:RDF><cc:Work
       rdf:about=""><dc:format>image/svg+xml</dc:format><dc:type
         rdf:resource="http://purl.org/dc/dcmitype/StillImage" /><dc:title /></cc:Work></rdf:RDF></metadata><defs
   id="defs51">
	
	
	
	
	
	
	
	
	
	
	
	
	
	
	
	
	
	
	
	
	
</defs><sodipodi:namedview
   pagecolor="#ffffff"
   bordercolor="#666666"
   borderopacity="1"
   objecttolerance="10"
   gridtolerance="10"
   guidetolerance="10"
   inkscape:pageopacity="0"
   inkscape:pageshadow="2"
   inkscape:window-width="1920"
   inkscape:window-height="1009"
   id="namedview49"
   showgrid="false"
   inkscape:zoom="0.37923554"
   inkscape:cx="928.68914"
   inkscape:cy="986.62715"
   inkscape:window-x="1272"
   inkscape:window-y="-8"
   inkscape:window-maximized="1"
   inkscape:current-layer="Calque_1"
   showguides="true"
   inkscape:guide-bbox="true"
   inkscape:document-rotation="0"><sodipodi:guide
     position="447.02787,182.4691"
     orientation="0,-1"
     id="guide1653" /></sodipodi:namedview>
<style
   type="text/css"
   id="style2">
	.st0{fill:#4F9982;}
</style>

<path
   id="path1940"
   style="color:#000000;font-style:normal;font-variant:normal;font-weight:normal;font-stretch:normal;font-size:medium;line-height:normal;font-family:sans-serif;font-variant-ligatures:normal;font-variant-position:normal;font-variant-caps:normal;font-variant-numeric:normal;font-variant-alternates:normal;font-variant-east-asian:normal;font-feature-settings:normal;font-variation-settings:normal;text-indent:0;text-align:start;text-decoration:none;text-decoration-line:none;text-decoration-style:solid;text-decoration-color:#000000;letter-spacing:normal;word-spacing:normal;text-transform:none;writing-mode:lr-tb;direction:ltr;text-orientation:mixed;dominant-baseline:auto;baseline-shift:baseline;text-anchor:start;white-space:normal;shape-padding:0;shape-margin:0;inline-size:0;clip-rule:nonzero;display:inline;overflow:visible;visibility:visible;isolation:auto;mix-blend-mode:normal;color-interpolation:sRGB;color-interpolation-filters:linearRGB;solid-color:#000000;solid-opacity:1;vector-effect:none;fill:#4f9982;fill-opacity:1;fill-rule:nonzero;stroke:none;stroke-width:83.7542;stroke-linecap:butt;stroke-linejoin:miter;stroke-miterlimit:4;stroke-dasharray:none;stroke-dashoffset:0;stroke-opacity:1;paint-order:markers stroke fill;color-rendering:auto;image-rendering:auto;shape-rendering:auto;text-rendering:auto;enable-background:accumulate;stop-color:#000000"
   d="M 566.93212,5.5225432 C 257.37137,5.5225432 5.5225356,257.37136 5.5225356,566.93215 c 0,309.56075 251.8488544,561.40525 561.4095844,561.40525 309.56077,0 561.40528,-251.84453 561.40528,-561.40525 0,-309.56077 -251.84451,-561.4096068 -561.40528,-561.4096068 z m 0,41.8771438 c 286.92875,0 519.52818,232.603753 519.52818,519.532463 0,286.92872 -232.59943,519.52815 -519.52818,519.52815 -286.92871,0 -519.532427,-232.59943 -519.532427,-519.52815 0,-286.92874 232.603717,-519.532463 519.532427,-519.532463 z" /><path
   id="path1942"
   style="color:#000000;font-style:normal;font-variant:normal;font-weight:normal;font-stretch:normal;font-size:medium;line-height:normal;font-family:sans-serif;font-variant-ligatures:normal;font-variant-position:normal;font-variant-caps:normal;font-variant-numeric:normal;font-variant-alternates:normal;font-variant-east-asian:normal;font-feature-settings:normal;font-variation-settings:normal;text-indent:0;text-align:start;text-decoration:none;text-decoration-line:none;text-decoration-style:solid;text-decoration-color:#000000;letter-spacing:normal;word-spacing:normal;text-transform:none;writing-mode:lr-tb;direction:ltr;text-orientation:mixed;dominant-baseline:auto;baseline-shift:baseline;text-anchor:start;white-space:normal;shape-padding:0;shape-margin:0;inline-size:0;clip-rule:nonzero;display:inline;overflow:visible;visibility:visible;isolation:auto;mix-blend-mode:normal;color-interpolation:sRGB;color-interpolation-filters:linearRGB;solid-color:#000000;solid-opacity:1;vector-effect:none;fill:#4f9982;fill-opacity:1;fill-rule:nonzero;stroke:none;stroke-width:79.1109;stroke-linecap:butt;stroke-linejoin:miter;stroke-miterlimit:4;stroke-dasharray:none;stroke-dashoffset:0;stroke-opacity:1;paint-order:markers stroke fill;color-rendering:auto;image-rendering:auto;shape-rendering:auto;text-rendering:auto;enable-background:accumulate;stop-color:#000000"
   d="m 566.93164,76.201172 c -271.02198,0 -490.732421,219.706498 -490.732421,490.728518 0,82.48306 20.36621,160.20055 56.323191,228.42814 0,0 120.99186,-73.90846 154.0567,-103.84902 L 158.83984,839.52148 c 88.03164,131.52599 237.94034,218.13672 408.0918,218.13672 271.02203,0 490.72856,-219.70654 490.72856,-490.72851 0,-158.39274 -75.04455,-299.25723 -191.51567,-388.98242 L 625.1875,153.45898 801.73047,135.92188 C 731.98706,97.847194 651.98886,76.201172 566.93164,76.201172 Z m 277.12109,125.738278 9.1543,13.83203 -31.03906,29.94532 27.875,24.28711 32.14062,-29.9668 12.73047,15.05469 -33.39844,29.9707 26.3086,26.30859 32.82617,-32.82812 10.95117,12.74023 -43.77734,41.97071 -37.41797,-34.3711 -15.28125,12.57422 15.13867,15.13672 c -6.88564,6.54863 -21.77081,6.91498 -31.29101,1.01172 l -10.16797,10.17187 23.48828,23.48438 -9.98047,9.97851 -23.48633,-23.48828 -10.6582,10.66407 c 15.91947,20.6718 16.72396,46.74935 1.90234,61.58398 l -31.74804,-31.74414 -55.83399,55.83398 c -3.85806,-4.25613 -7.91307,-8.3287 -12.1543,-12.20312 l 55.81055,-55.8125 -31.67969,-31.6836 c 14.81619,-14.80017 40.84838,-14.01724 61.51172,1.85157 l 10.67188,-10.66602 -24.21289,-24.21289 9.97851,-9.98047 24.20899,24.20899 10.35156,-10.34571 c -1.0235,-1.74644 -1.88015,-3.55967 -2.55664,-5.40625 -3.22733,-8.83149 -2.07217,-17.71897 2.98242,-23.74218 l 2.14844,-0.21875 13.39648,13.39648 15.44922,-15.44922 -38.11328,-38.11523 z m -336.4375,1.08399 v 45.91601 l 50.82422,2.03711 v -46.42578 h 15.47461 l 1.07032,43.24024 42.86328,1.68359 7.13476,-44.92383 h 15.47461 v 61.90039 h -12.38281 l -52.87891,2.03321 -1.28125,16.18164 36.77344,-1.01172 2.04102,13.87109 -38.80274,3.31055 -0.0117,10.13867 h 38.8125 l -0.004,11.58594 -38.81055,1.27343 0.25,11.91993 38.56445,1.52929 0.26758,16.42188 -39.07422,-1.78125 -0.006,32.20117 c -2.32711,-0.0886 -4.65557,-0.13122 -6.98437,-0.13086 -2.83133,-4.4e-4 -5.66388,0.0642 -8.49219,0.19531 v -34.04687 l -38.04492,1.26953 -0.76758,-14.12891 h 38.8125 V 323.83398 H 519.625 l 1.78516,-12.10351 37.02734,-0.75586 v -13.44922 l -36.77344,1.01172 -2.03906,-13.87109 h 38.8125 v -18.21485 h -66.54688 v -61.90039 z m -207.05273,2.54297 52.80273,53.24804 -39.55859,44.04102 5.95117,6.52344 c 11.122,-6.89905 21.73539,-7.4662 34.14649,1.20703 l -15.29492,17.72461 104.26171,104.17773 c -4.30856,3.97564 -8.42297,8.15656 -12.33007,12.52734 L 325.00586,339.48438 308.14453,356.3457 c -7.28033,-7.65613 -7.55541,-24.15352 -0.9043,-34.6289 l -8.1875,-7.47461 -42.92773,42.60156 -53.88281,-52.97852 9.03125,-9.09179 44.01172,44.38672 34.69922,-34.70118 -5.54688,-5.01367 -21.67773,18.97461 -9.90039,-9.89453 21.2246,-19.96484 -11.28515,-11.28516 c -13.08453,7.22041 -28.22884,5.93773 -36.50195,-3.0918 -7.79695,-8.51141 -7.57982,-21.85368 0.5332,-32.8789 l -3.08594,-3.61328 13.51367,-10.8125 5.46289,1.85937 c 12.88238,-6.60196 24.99206,-3.92366 33.01758,4.83399 7.55428,8.2438 7.61395,21.05832 0.14649,31.93164 l 9.59961,8.08593 21.04296,-17.47265 10.6211,10.2539 -21.36914,19.0293 6.63086,6.62891 33.0625,-33.05664 -47.75196,-41.5 z M 566.70312,407.0293 h 0.22657 c 88.31044,2.5e-4 159.90014,71.58995 159.90039,159.90039 -2.5e-4,88.31044 -71.58995,159.90014 -159.90039,159.90039 -88.31044,-2.5e-4 -159.90014,-71.58995 -159.90039,-159.90039 1.6e-4,-88.22204 71.45187,-159.77513 159.67382,-159.90039 z m -362.65624,60.60351 h 61.90429 l 1.27344,92.95313 116.87891,0.004 c -0.16903,4.94762 -0.13422,9.93478 0.11132,15.26563 l -112.91211,5.0332 c 0,30.98582 -5.35156,87.92578 -5.35156,87.92578 l -58.59765,-0.77734 -3.30664,-14.69922 46.1621,-3.30859 0.26758,-27.64063 h -46.42968 l -3.31836,-17.7539 49.47851,-1.79493 0.26953,-26.98437 h -47.60742 l 0.75,-18.83203 46.85742,3.5664 0.0176,-26.2207 -46.44726,-4.83594 v -15.47461 h 46.42968 l -1.26562,-28.65429 -45.16406,-2.29688 z m 717.15039,38.6875 44.98828,0.63477 1.4375,14.83984 -45.15625,2.60547 -0.19336,35.19727 41.7207,0.63867 1.16992,15.61719 -40.0957,0.0762 -3.87109,38.71679 45.66015,-0.25195 0.76563,15.73047 c -20.63492,0 -40.00764,0.53516 -60.64258,0.53516 l -1.26367,-54.80664 h -22.64649 v 24.69531 c -9.30469,-1.2e-4 -17.90663,-6.16782 -22.55859,-16.17969 -1.23559,-2.66188 -2.15743,-5.52992 -2.74219,-8.51562 l -12.19141,0.0781 -3.24218,38.50586 h -15.47461 v -38.58398 h -15.74024 c -0.58872,2.7033 -1.45704,5.30114 -2.58398,7.72656 -4.65191,10.01181 -13.25004,16.17951 -22.55469,16.17969 v -23.90625 h -36.33398 c 0.14499,-2.97304 0.21687,-5.94921 0.21679,-8.92579 -5e-4,-2.11248 -0.0377,-4.22474 -0.11132,-6.33593 l 38.29882,-0.006 -2.07031,-25.54102 c 9.30465,2e-4 17.90277,6.16786 22.55469,16.17969 1.35453,2.91555 2.33414,6.07812 2.9043,9.36914 l 17.31054,-0.006 -1.89062,-39.00391 15.82226,-3.60156 -0.34765,42.61133 h 15.41992 c 0.58491,-3.00862 1.51051,-5.89944 2.75586,-8.58008 4.65257,-10.01071 13.25441,-16.17432 22.55859,-16.17383 v 24.75391 l 19.67969,0.82227 2.9668,-39.61914 v -15.47461 z m -489.3125,184.01367 c 3.87581,4.24134 7.94943,8.2983 12.20703,12.15625 l -86.43164,88.08789 16.65429,15.01172 c -6.57922,6.58062 -17.01699,8.2999 -27.38672,4.50977 -2.40628,-0.87946 -4.75755,-2.04038 -6.99804,-3.45117 l -11.29102,14.33984 18.2461,20.04492 -10.86133,7.93555 -18.74805,-17.62305 -7.52148,6.99805 35.33984,37.63672 -12.5957,10.56836 -42.11524,44.14648 -8.66406,-13.8789 39.07617,-40.82227 -24.52539,-25.16992 -14.17773,13.66211 10.66601,10.66601 -9.93359,8.77344 -11.67188,-8.5 -8.22656,6.19141 11.04297,10.77734 -10.93945,10.94336 -31.05664,-34.23437 9.16796,-9.53711 11.90626,12.02539 5.92382,-8.34375 -9.98437,-9.98243 10.94531,-10.93945 9.97852,9.97852 14.69531,-12.77149 -27.05078,-29.20703 -41.23633,40.83399 -13.48047,-8.00782 38.31641,-38.91406 16.40039,-15.80078 37.85156,35.82422 9.42773,-6.875 -22.375,-22.375 9.20313,-9.20313 22.23633,19.57422 13.79492,-10.85742 c -1.49991,-2.33333 -2.72265,-4.79021 -3.64258,-7.30859 -3.78948,-10.36803 -2.07433,-20.80723 4.50391,-27.38672 l 17.92578,14.24023 z m 269.48632,0.65821 68.84571,65.78906 22.35351,-22.3418 10.05664,10.05664 -23.88086,23.8711 10.3086,10.30859 23.87695,-23.87695 10.05078,10.05273 -21.96094,25.14258 8.39454,9.04102 23.875,-23.87891 10.05273,10.05469 -23.87305,23.88086 15.375,10.04882 c 14.6298,-12.18079 29.88586,-23.72943 42.97266,-37.61132 l 10.94336,10.94531 38.29687,38.29687 -12.72851,8.65821 -34.7168,-33.60352 -33.80859,29.59961 10.66211,10.66602 18.4414,-18.44336 c 9.20611,9.55786 15.11366,29.76042 7.61133,44.49218 l 4.71485,2.91016 c -4.2614,4.2614 -10.46284,7.67212 -14.84961,11.92383 l -2.04688,-2.16602 c -2.9793,1.7687 -6.23755,3.07421 -9.66406,3.87305 -12.58822,2.9356 -26.28512,-1.20139 -35.9375,-10.85352 l 17.77539,-20.45117 -10.39649,-7.48047 -28.86718,28.07618 36.27343,40.34179 -16.03125,12.10743 c -14.37866,-17.08493 -28.03284,-34.9041 -44.15429,-50.4043 l 43.10156,-43.10742 -15.39453,-15.39258 -24.02539,24.02539 -10.05664,-10.05664 21.59961,-26.18164 -7.87891,-8.14844 -24.54102,21.86328 -9.54101,-7.89062 21.23047,-23.89063 -6.10156,-8.66601 -22.49024,26.18359 -12.99805,-13.98633 20.44727,-28.08984 -63.84375,-63.36133 c 4.37068,-3.90573 8.5516,-8.01907 12.52734,-12.32617 z M 558.4375,749.66992 h 0.002 c 2.8283,0.13107 5.6589,0.19758 8.49024,0.19727 2.32879,4.4e-4 4.65726,-0.0443 6.98437,-0.13281 l -0.0117,62.9121 c 45.24982,-0.01 102.08986,3.2694 154.60352,3.8125 l -2.92969,80.86719 h 15.6836 v 13.56055 l -15.42383,1.39844 -0.25977,7.72265 14.9043,-1.65234 0.41015,21.19141 -47.48828,-4.8379 0.25,-14.70117 16.45118,1.14649 -2.92774,-9.49414 -13.51953,-0.77344 v -13.56055 h 16.44336 l -1.01367,-67.13281 -33.03711,-1.02148 c -0.33146,6.03164 -0.3374,10.73897 0,14.05273 h 15.05273 v 13.55664 l -14.91601,2.79883 -0.13672,6.32617 15.44336,3.81836 -0.39649,9.73828 h -15.04687 v 21.48242 l -15.21485,1.65235 1.13868,-23.01368 -18.47461,-0.12109 0.38672,-11.90234 16.6875,-1.6543 0.2539,-9.63477 -17.32422,0.50977 v -13.55664 h 17.07032 v -14.05273 h -86.66016 v 27.10546 h 57.47656 v 1.36914 h 0.0566 l 3.05469,74.88477 -19.01758,-0.11523 1.5293,-60.81836 -43.09961,-0.12305 -0.39649,21.05664 16.08594,4.19727 v 13.55664 h -15.68945 l 0.75977,7.59179 14.92578,1.5293 v 13.56055 h -47.60352 v -13.56055 l 16.83008,1.01758 -0.39453,-12.17578 -16.43164,2.03711 v -13.55664 l 17.32031,-3.05664 -0.88086,-22.19727 -41.25781,1.90625 -1.27344,61.54883 -16.10937,-5.34571 c 0.0781,-21.87219 0.45097,-49.96152 0.79296,-75.34375 l 56.06446,0.36329 1.7832,-25.43164 h -86.66406 l 1.78906,11.16601 13.80078,2.88867 v 13.55469 h -15.58984 v 9.125 l 13.96289,0.1875 1.61914,13.36914 -14.85352,2.42773 -0.72851,19.05469 -15.1211,-1.71289 -2.41796,-17.96289 -14.47657,-1.80664 1.26172,-13.01953 15.2793,-0.53711 v -9.125 l -18.69727,0.0977 2.16016,-13.6543 14.91406,-0.71289 1.62305,-13.33984 H 422.25 l 1.25,64.00585 14.55859,3.1543 v 13.55078 l -15.88867,2.70117 0.082,6.42579 h 15.80274 l 1.26367,14.7207 -48.86328,-1.16602 0.18359,-13.10547 16.13672,-0.44921 -1.52539,-8.13086 -13.61523,0.25976 -1.26758,-15.70508 16.22265,-0.99023 -0.19336,-84.01367 c 49.8979,3.31608 101.77481,2.38171 152.04102,5.09765 z"
   sodipodi:nodetypes="sscccsscccsccccccccccccccccccccccccccccccccccccccccccccccccccccccccccccccccccccccccccccccccccccccccccccccccccccccccccccccccccccccccscccccccccccccccccccccccccccccccccccccccccccccccccccscccccccscccccccccccccccccsccccccccccccccccccccccccccccccccccccccccccccccccccccccccccccccccccccccccccccccccccccccccccccsccccccccccccccccccccccccccccccccccccccccccccccccccccccccccccccccccccccccccccccccccccccccccccccccccccccccccc" /><path
   id="path1972-8"
   style="font-variation-settings:normal;vector-effect:none;fill:#4f9982;fill-opacity:1;stroke:none;stroke-width:53.5376;stroke-linecap:butt;stroke-linejoin:miter;stroke-miterlimit:4;stroke-dasharray:none;stroke-dashoffset:0;stroke-opacity:1;paint-order:markers stroke fill;stop-color:#000000"
   d="M 566.77539 441.55273 A 125.3765 125.3765 0 0 0 441.55273 566.92969 A 125.3765 125.3765 0 0 0 463.03516 637.10938 C 497.11999 585.17415 548.90235 551.86745 602.25195 520.21094 C 548.28085 561.72918 499.43877 604.10268 473.24219 650.25 A 125.3765 125.3765 0 0 0 476.07422 653.32812 C 515.68167 608.7124 558.91196 581.84227 619.5 551.91016 C 557.53135 594.4921 511.75706 629.69165 496.48828 670.64648 A 125.3765 125.3765 0 0 0 501.54102 673.9043 C 542.46835 623.31493 597.82426 597.14358 650.73047 566.82617 C 593.25583 605.52644 545.43036 644.22551 519.34961 682.92578 A 125.3765 125.3765 0 0 0 566.92969 692.30664 A 125.3765 125.3765 0 0 0 692.30664 566.92969 A 125.3765 125.3765 0 0 0 566.92969 441.55273 A 125.3765 125.3765 0 0 0 566.77539 441.55273 z M 524.66797 464.52734 A 28.531218 45.859756 38.767042 0 1 537.8125 468.74219 A 28.531218 45.859756 38.767042 0 1 531.3418 522.36328 A 28.531218 45.859756 38.767042 0 1 480.38086 540.25586 A 28.531218 45.859756 38.767042 0 1 486.85156 486.63281 A 28.531218 45.859756 38.767042 0 1 524.66797 464.52734 z " /></svg>
